<mxfile host="app.diagrams.net" modified="2024-05-10T02:37:54.265Z" agent="Mozilla/5.0 (Windows NT 10.0; Win64; x64) AppleWebKit/537.36 (KHTML, like Gecko) Chrome/124.0.0.0 Safari/537.36" version="24.3.1" etag="_DLjsk5swqAs_3hDSEKS" type="github">
  <diagram name="第 1 页" id="MGLQ8_jd8hu1Y0RtOEtm">
    <mxGraphModel>
      <root>
        <mxCell id="0" />
        <mxCell id="1" parent="0" />
      </root>
    </mxGraphModel>
  </diagram>
</mxfile>
